<svg xmlns="http://www.w3.org/2000/svg" width="797" height="469" viewBox="0 0 797 469" version="1.1">
	<path d="M 385.500 5.650 C 382.200 5.863, 374.325 6.730, 368 7.577 C 272.717 20.334, 195.451 91.326, 176.068 183.926 C 175.009 188.984, 173.649 193.717, 173.046 194.444 C 172.443 195.171, 170.597 205.733, 168.945 217.915 C 165.512 243.221, 165.714 245.786, 171.549 250.909 C 176.131 254.932, 182.013 255.159, 187.374 251.521 L 191.028 249.041 190.514 251.521 C 190.231 252.884, 189.756 255.167, 189.458 256.593 C 189.159 258.019, 188.682 261.057, 188.397 263.343 C 188.113 265.629, 187.487 269.784, 187.006 272.576 C 184.934 284.610, 191.462 293, 202.896 293 L 206.855 293 206.305 298.336 C 205.406 307.048, 206.092 307.598, 218.704 308.275 C 224.642 308.593, 231.536 309.403, 234.025 310.074 C 239.887 311.655, 247.677 310.593, 248.467 308.105 C 248.779 307.122, 249.912 301.712, 250.984 296.084 C 252.917 285.937, 252.917 285.781, 250.983 277.682 C 244.999 252.628, 246.369 221.638, 254.580 196.292 C 257.328 187.812, 266.644 167.713, 270.034 162.952 C 271.840 160.416, 271.992 159.504, 271.071 156.714 C 268.350 148.469, 258.971 141.760, 250.196 141.780 C 239.733 141.804, 231.251 148.553, 228.283 159.214 C 227.408 162.357, 226.258 164.660, 225.728 164.332 C 222.893 162.580, 217.524 162.257, 213.694 163.608 C 205.517 166.493, 203.480 170.041, 200.891 185.911 C 199.851 192.285, 198.995 197.950, 198.988 198.500 C 198.981 199.050, 197.848 197.528, 196.470 195.117 L 193.965 190.734 196.458 180.389 C 210.449 122.330, 251.812 72.043, 307.500 45.389 C 365.300 17.724, 433.518 18.144, 491.500 46.521 C 524.503 62.673, 554.285 88.880, 573.865 119 C 585.847 137.432, 598.366 167.123, 602.049 185.846 C 603.121 191.291, 603.070 192.265, 601.635 193.851 C 600.736 194.845, 600 196.185, 600 196.829 C 600 197.473, 599.640 198, 599.200 198 C 598.761 198, 597.831 194.063, 597.136 189.250 C 594.930 173.987, 594.097 171.297, 590.451 167.651 C 586.081 163.281, 580.913 161.920, 574.690 163.500 C 570.566 164.547, 569.999 164.498, 569.994 163.095 C 569.972 156.778, 564.047 147.627, 557.930 144.464 C 552.552 141.683, 547.133 141.068, 541.840 142.640 C 536.466 144.236, 529.773 149.604, 527.375 154.243 C 525.957 156.984, 526.036 157.381, 528.883 161.818 C 533.252 168.628, 540.366 183.356, 543.462 192 C 553.727 220.669, 555.055 254.965, 547.044 284.500 C 545.192 291.328, 545.190 291.722, 546.978 300.500 C 547.986 305.450, 549.059 310.175, 549.361 311 C 549.735 312.023, 548.151 313.612, 544.375 316 C 541.331 317.925, 537.203 321.646, 535.201 324.268 L 531.562 329.036 529.848 325.695 C 528.131 322.349, 521.426 315.642, 518.984 314.828 C 518.027 314.509, 518.371 313.222, 520.288 309.947 C 524.760 302.310, 530.973 286.255, 533.753 275.152 C 536.187 265.427, 536.423 262.760, 536.460 244.500 C 536.491 229.007, 536.101 222.654, 534.731 216.308 C 522.446 159.408, 478.249 116.668, 422.159 107.449 C 409.412 105.353, 382.708 105.908, 371 108.512 C 342.439 114.863, 317.841 129.131, 298.927 150.319 C 280.021 171.496, 269.663 191.954, 264.340 218.626 C 261.649 232.108, 261.937 257.187, 264.940 271 C 267.627 283.352, 270.780 292.507, 276.120 303.452 C 278.836 309.018, 280 312.726, 280 315.809 C 280 319.482, 279.727 320.109, 278.359 319.584 C 277.456 319.238, 269.908 318.673, 261.586 318.330 C 247.918 317.766, 246.021 317.895, 241.977 319.666 L 237.500 321.627 234.200 319.379 C 230.413 316.800, 225.048 316.006, 209.422 315.710 C 198.564 315.504, 198.242 315.563, 193.247 318.662 C 188.251 321.761, 188.116 321.786, 186.417 319.908 C 182.129 315.170, 175.170 313.086, 159.691 311.904 C 146.564 310.901, 144.392 310.960, 140.564 312.422 C 138.188 313.330, 135.450 314.950, 134.479 316.023 C 132.741 317.944, 132.653 317.919, 128.805 314.442 C 123.674 309.807, 121.488 309.032, 109 307.420 C 90.132 304.985, 83.541 305.697, 77.725 310.799 C 76.089 312.233, 75.655 312.070, 72.225 308.727 C 66.965 303.602, 63.397 302.414, 47.305 300.432 C 33.750 298.763, 32.907 298.764, 28.478 300.455 C 20.178 303.625, 14.205 311.601, 10.433 324.554 C 8.969 329.581, 8.634 336.290, 8.265 367.953 C 7.789 408.828, 8.359 416.459, 12.777 428.377 C 14.701 433.568, 16.748 436.839, 20.450 440.639 C 27.725 448.104, 29.924 448.496, 50.664 446.022 C 59.924 444.917, 69.300 443.476, 71.500 442.819 C 73.700 442.162, 78.684 441.596, 82.575 441.562 C 88.734 441.508, 90.126 441.137, 93.334 438.692 C 97.915 435.201, 100.785 429.695, 102.493 421.119 C 103.499 416.073, 103.837 415.332, 103.916 418 C 104.044 422.316, 107.916 430.749, 111.118 433.683 C 117.347 439.392, 127.686 439.439, 133.721 433.787 C 135.484 432.135, 136.236 431.951, 137.374 432.895 C 140.614 435.585, 145.555 436.013, 161 434.943 C 169.525 434.353, 178.975 433.365, 182 432.749 C 185.025 432.133, 190.944 431.600, 195.154 431.564 C 202.131 431.506, 203.148 431.230, 206.654 428.449 C 208.769 426.771, 211.625 423.171, 213 420.449 C 215.440 415.619, 215.508 414.893, 215.812 390.250 L 216.125 365 219.562 365 L 223 365 223.024 381.750 C 223.051 399.841, 223.781 404.784, 227.534 412.254 L 229.964 417.093 226.732 422.797 C 223.745 428.067, 223.500 429.189, 223.500 437.578 C 223.500 445.911, 223.747 447.061, 226.505 451.578 C 228.672 455.127, 230.848 457.164, 234.304 458.880 L 239.098 461.259 258.310 459.630 C 268.877 458.733, 278.080 458, 278.762 458 C 279.518 458, 280 459.407, 280 461.613 C 280 465.155, 280.065 465.214, 283.250 464.585 C 285.038 464.233, 294.600 463.535, 304.500 463.035 C 332.008 461.646, 335.944 461.172, 341.645 458.562 C 351.844 453.893, 360.162 443.387, 363.071 431.500 C 363.744 428.750, 364.358 426.409, 364.434 426.297 C 364.510 426.185, 367.207 427.423, 370.427 429.047 C 375.062 431.385, 377.554 431.991, 382.391 431.955 C 385.751 431.930, 389.850 431.330, 391.500 430.621 C 393.963 429.562, 395.076 429.570, 397.718 430.666 C 401.764 432.344, 411.548 432.319, 415.500 430.621 C 417.959 429.564, 419.074 429.570, 421.683 430.651 C 423.657 431.470, 429.167 431.985, 436.183 432.008 C 442.407 432.028, 448.400 432.067, 449.500 432.094 C 450.600 432.121, 454.200 432.156, 457.500 432.170 C 460.800 432.185, 466.200 432.237, 469.500 432.285 C 475.705 432.377, 480.409 430.675, 484.644 426.808 C 486.785 424.854, 486.795 424.856, 491.662 428.353 C 502.952 436.463, 516.838 435.456, 525.865 425.870 L 529.386 422.131 532.142 425.879 C 536.445 431.730, 543.717 435.185, 551.812 435.225 C 560.306 435.266, 565.223 433.221, 570.655 427.388 L 574.876 422.855 577.517 426.847 C 580.247 430.971, 585.502 435.139, 590.189 436.896 C 593.771 438.239, 626.079 440.375, 632.612 439.701 C 635.452 439.408, 639.191 438.435, 640.922 437.540 C 643.918 435.991, 644.215 436.017, 647.107 438.076 C 651.819 441.431, 657.783 442.800, 673.514 444.137 C 685.109 445.122, 689.015 445.118, 692.921 444.117 C 697.293 442.996, 698.219 443.069, 701.656 444.800 C 706.822 447.403, 713.535 448.120, 719 446.653 C 723.039 445.569, 724.013 445.674, 728.500 447.681 C 732.038 449.263, 738.081 450.429, 749.162 451.669 C 764.041 453.333, 765.099 453.334, 770.333 451.684 C 782.178 447.950, 792.068 434.096, 795.539 416.377 C 797.877 404.439, 797.217 334.351, 794.685 325.672 C 790.416 311.038, 782.327 300.108, 772.702 295.966 C 768.049 293.964, 766.445 293.792, 757.499 294.339 C 751.998 294.675, 746.035 295.243, 744.249 295.600 C 741.147 296.221, 741 296.111, 741 293.174 C 741 288.426, 738.965 279.927, 736.769 275.500 C 730.473 262.810, 717.204 257.197, 704.263 261.750 C 701.093 262.865, 696.148 263.802, 693.274 263.832 C 678.495 263.984, 667.614 277.041, 666.260 296.250 L 665.714 304 662.539 304 C 658.248 304, 650.040 306.585, 647.118 308.856 C 644.800 310.658, 644.606 310.658, 639.857 308.854 C 636.505 307.580, 632.401 307.009, 626.739 307.029 C 616.937 307.064, 593.533 308.696, 590.913 309.528 C 589.247 310.056, 589.169 309.813, 590.125 307.070 C 590.709 305.396, 591.032 301.544, 590.843 298.512 L 590.500 292.997 594.800 292.999 C 599.928 293, 603.864 291.139, 607.256 287.107 C 610.969 282.695, 611.280 278.633, 609.029 263.944 C 607.913 256.664, 607 250.284, 607 249.765 C 607 249.247, 608.385 249.987, 610.077 251.411 C 614.611 255.227, 620.763 255.025, 625.453 250.907 C 631.414 245.673, 631.656 243.134, 628.512 218.827 C 626.995 207.097, 625.090 196.150, 624.280 194.500 C 623.470 192.850, 621.951 187.450, 620.904 182.500 C 609.213 127.231, 578.149 80.962, 528.837 45.370 C 526.452 43.648, 523.150 41.498, 521.500 40.592 C 519.850 39.686, 516.925 37.990, 515 36.825 C 492.022 22.909, 458.829 11.530, 429.500 7.513 C 418.649 6.027, 395.115 5.030, 385.500 5.650 M 306.682 151.958 C 305.682 152.970, 305.243 154.032, 305.707 154.319 C 306.171 154.606, 307.599 153.751, 308.880 152.420 C 310.337 150.907, 310.702 150.022, 309.855 150.059 C 309.110 150.092, 307.682 150.947, 306.682 151.958 M 311 152.941 C 311 153.459, 311.450 154.160, 312 154.500 C 312.550 154.840, 313 154.416, 313 153.559 C 313 152.702, 312.550 152, 312 152 C 311.450 152, 311 152.423, 311 152.941 M 307.991 155.511 C 306.962 156.750, 307.111 157, 308.878 157 C 310.045 157, 311 156.577, 311 156.059 C 311 154.327, 309.240 154.006, 307.991 155.511 M 454.910 185.817 C 457.306 188.366, 458.613 189.167, 458.841 188.228 C 459.282 186.405, 455.141 182, 452.985 182 C 451.767 182, 452.284 183.025, 454.910 185.817 M 342.028 185.466 C 339.785 188.169, 341.509 189.152, 343.944 186.559 C 345.773 184.613, 345.977 184, 344.797 184 C 343.943 184, 342.697 184.660, 342.028 185.466 M 348.577 192.920 C 347.039 194.525, 345.947 196.342, 346.152 196.956 C 346.357 197.570, 348.297 196.256, 350.465 194.036 C 352.945 191.496, 353.844 190, 352.890 190 C 352.056 190, 350.115 191.314, 348.577 192.920 M 449.506 194.006 C 451.495 196.205, 452.586 195.970, 451.655 193.543 C 451.329 192.694, 450.304 192, 449.376 192 C 447.837 192, 447.849 192.175, 449.506 194.006 M 356.004 199.496 C 354.714 200.869, 353.881 202.214, 354.152 202.486 C 354.424 202.757, 355.935 201.634, 357.510 199.990 C 359.085 198.345, 359.918 197, 359.361 197 C 358.804 197, 357.293 198.123, 356.004 199.496 M 442.020 200.524 C 442.716 201.362, 443.491 201.842, 443.743 201.591 C 444.436 200.897, 443.027 199, 441.819 199 C 441.155 199, 441.231 199.574, 442.020 200.524 M 362.494 207.006 C 359.821 209.960, 361.252 210.425, 364.004 207.496 C 365.293 206.123, 365.890 205, 365.329 205 C 364.769 205, 363.493 205.903, 362.494 207.006 M 435.020 207.524 C 435.716 208.362, 436.491 208.842, 436.743 208.591 C 437.436 207.897, 436.027 206, 434.819 206 C 434.155 206, 434.231 206.574, 435.020 207.524 M 374.128 215.900 C 373.374 216.378, 372.935 217.305, 373.154 217.961 C 373.410 218.731, 374.216 218.418, 375.431 217.077 C 377.340 214.967, 376.623 214.319, 374.128 215.900 M 423.615 216.750 C 424.582 217.713, 426.189 219.372, 427.187 220.439 C 428.960 222.335, 429 222.297, 429 218.689 C 429 215.126, 428.878 215, 425.429 215 C 422.024 215, 421.939 215.082, 423.615 216.750 M 269 241.500 C 269 242.325, 269.450 243, 270 243 C 270.550 243, 271 242.325, 271 241.500 C 271 240.675, 270.550 240, 270 240 C 269.450 240, 269 240.675, 269 241.500 M 273 241.500 C 273 242.325, 273.450 243, 274 243 C 274.550 243, 275 242.325, 275 241.500 C 275 240.675, 274.550 240, 274 240 C 273.450 240, 273 240.675, 273 241.500 M 524.667 240.667 C 523.516 241.817, 523.938 243, 525.500 243 C 526.325 243, 527 242.325, 527 241.500 C 527 239.938, 525.817 239.516, 524.667 240.667 M 528 241.417 C 528 242.287, 528.712 243, 529.583 243 C 531.349 243, 531.042 240.847, 529.188 240.229 C 528.534 240.011, 528 240.546, 528 241.417 M 397.787 242.852 C 395.366 243.768, 397.146 246.264, 399.916 245.837 C 401.800 245.547, 401.924 245.270, 400.803 243.852 C 400.017 242.858, 398.820 242.461, 397.787 242.852 M 269.543 244.931 C 269.226 245.443, 269.425 246.144, 269.984 246.490 C 270.543 246.835, 271 246.416, 271 245.559 C 271 243.802, 270.400 243.544, 269.543 244.931 M 273 245.559 C 273 246.416, 273.457 246.835, 274.016 246.490 C 274.575 246.144, 274.774 245.443, 274.457 244.931 C 273.600 243.544, 273 243.802, 273 245.559 M 524.694 244.639 C 523.895 245.438, 524.798 247, 526.059 247 C 526.577 247, 527 246.325, 527 245.500 C 527 243.954, 525.820 243.513, 524.694 244.639 M 528.469 245.050 C 527.519 246.588, 528.820 247.580, 530.104 246.296 C 530.822 245.578, 530.839 245.019, 530.156 244.597 C 529.596 244.251, 528.837 244.455, 528.469 245.050 M 371 269 C 371 271.706, 371.313 272, 374.187 272 L 377.374 272 374.500 269 C 372.919 267.350, 371.485 266, 371.313 266 C 371.141 266, 371 267.350, 371 269 M 425.234 269.029 L 421.968 272 425.484 272 C 428.724 272, 429 271.764, 429 269 C 429 267.350, 428.887 266.013, 428.750 266.029 C 428.613 266.045, 427.030 267.395, 425.234 269.029 M 706 270.160 C 702.842 271.645, 699.360 272.309, 694.324 272.388 C 686.346 272.513, 683.293 274.050, 679.260 279.974 C 675.976 284.800, 674.894 289.303, 674.287 300.667 L 673.745 310.833 667.623 311.453 C 658.001 312.427, 653.396 313.969, 649.084 317.660 L 645.084 321.084 640.843 318.292 C 636.657 315.536, 636.424 315.503, 622.551 315.725 C 614.823 315.848, 604.675 316.394, 600 316.937 C 595.325 317.480, 583.784 318.134, 574.354 318.390 C 559.574 318.791, 556.504 319.158, 552.112 321.047 C 543.309 324.834, 536.302 334.863, 534.008 346.960 C 532.388 355.501, 532.707 406.709, 534.416 412.386 C 537.325 422.053, 543.453 427, 552.518 427 C 559.681 427, 564.531 423.689, 568.633 416 C 570.274 412.924, 570.540 409.621, 570.829 388.750 L 571.159 365 575.329 364.999 L 579.500 364.998 579.180 387.002 C 578.925 404.542, 579.171 410.077, 580.393 414.280 C 582.235 420.616, 587.815 427.473, 592.266 428.871 C 594.045 429.430, 603.979 430.416, 614.342 431.063 L 633.185 432.239 639.202 429.135 L 645.219 426.032 649.102 429.355 C 654.185 433.706, 657.718 434.642, 674.525 436.087 C 688.005 437.246, 688.736 437.211, 693.307 435.188 L 698.064 433.084 702.728 436.042 C 708.512 439.711, 716.612 440.144, 721.677 437.056 C 724.492 435.339, 724.996 435.291, 726.110 436.632 C 729.001 440.116, 734.850 441.871, 748.995 443.499 C 760.931 444.874, 764.139 444.941, 767.868 443.897 C 777.013 441.337, 784.635 429.821, 787.604 414.079 C 789.957 401.603, 789.168 334.943, 786.574 327 C 782.355 314.087, 776.577 306.150, 769.398 303.408 C 765.294 301.841, 763.701 301.802, 751.694 302.980 C 744.437 303.691, 736.619 304.834, 734.320 305.518 C 730.249 306.730, 730.161 306.707, 730.946 304.631 C 735.708 292.035, 730.517 274.407, 720.737 269.967 C 715.280 267.490, 711.575 267.538, 706 270.160 M 361 276.659 C 361 277.205, 362.238 278.742, 363.750 280.076 L 366.500 282.500 364 279.500 C 362.625 277.850, 361.387 276.313, 361.250 276.083 C 361.113 275.854, 361 276.113, 361 276.659 M 435 280 C 434.099 280.582, 433.975 280.975, 434.691 280.985 C 435.346 280.993, 436.160 280.550, 436.500 280 C 437.267 278.758, 436.921 278.758, 435 280 M 354 284.158 C 354 286.061, 357.493 289.336, 358.991 288.836 C 359.599 288.634, 358.726 287.153, 357.049 285.547 C 354.915 283.502, 354 283.085, 354 284.158 M 346 290.110 C 346 292.039, 351.474 297.342, 352.956 296.848 C 353.570 296.643, 352.256 294.703, 350.036 292.535 C 347.496 290.055, 346 289.156, 346 290.110 M 686.385 304 C 686.385 310.875, 686.545 313.688, 686.740 310.250 C 686.936 306.813, 686.936 301.188, 686.740 297.750 C 686.545 294.313, 686.385 297.125, 686.385 304 M 339 297.110 C 339 299.039, 344.474 304.342, 345.956 303.848 C 346.570 303.643, 345.256 301.703, 343.036 299.535 C 340.496 297.055, 339 296.156, 339 297.110 M 449.500 299.945 C 441.575 303.189, 440.085 316.112, 446.929 322.228 C 454.304 328.817, 464 323.007, 464 312 C 464 302.896, 456.838 296.942, 449.500 299.945 M 706 303.239 C 706 307.685, 711.217 310.445, 715 308 C 716.203 307.223, 716.035 307.028, 714.151 307.015 C 712.827 307.007, 710.536 305.645, 708.901 303.894 C 706 300.789, 706 300.789, 706 303.239 M 447.481 305.205 C 445.151 307.975, 444.848 309.071, 445.254 313.288 C 445.825 319.231, 448.517 322.333, 453.103 322.333 C 457.927 322.333, 461 318.273, 461 311.899 C 461 307.934, 460.496 306.405, 458.545 304.455 C 455.004 300.913, 450.856 301.194, 447.481 305.205 M 31.036 308.750 C 26.558 313.253, 23.539 320.886, 22.076 331.406 C 20.764 340.842, 20.702 396.731, 21.993 406.667 C 23.720 419.958, 29.015 430.914, 34.766 433.101 C 37.620 434.186, 69.877 430.671, 73.153 428.918 C 74.160 428.379, 75.868 426.265, 76.948 424.219 C 78.028 422.174, 78.931 421.083, 78.956 421.795 C 78.980 422.508, 80.105 424.195, 81.455 425.545 C 86.080 430.171, 91.948 428.009, 95.144 420.500 C 96.074 418.315, 96.520 407.855, 96.786 382 L 97.151 346.500 105.825 346.805 C 110.596 346.973, 115.063 347.296, 115.750 347.524 C 116.716 347.843, 117.001 355.385, 117.006 380.719 C 117.009 400.191, 117.431 415.010, 118.044 417.221 C 120.689 426.744, 132.536 425.805, 134.438 415.921 C 134.747 414.314, 135.269 411.612, 135.598 409.915 L 136.196 406.830 138.473 411.744 C 140.807 416.782, 144.713 420.641, 148.412 421.565 C 149.561 421.851, 158.295 421.431, 167.823 420.632 C 186.343 419.077, 188.022 418.505, 190.234 413 C 190.967 411.175, 191.376 410.905, 191.746 412 C 192.849 415.254, 196.381 418, 199.424 417.968 C 203.175 417.929, 205.178 416.496, 207.346 412.300 C 208.773 409.538, 209 405.115, 209 380.050 L 209 351 220.943 351 C 231.930 351, 233.004 350.832, 234.353 348.907 C 235.661 347.039, 235.855 349.497, 236.159 371.761 L 236.500 396.707 240 403.604 C 242.901 409.321, 244.248 410.877, 247.874 412.707 C 251.884 414.730, 253.193 414.863, 263.624 414.304 C 273.547 413.772, 275 413.894, 275 415.262 C 275 416.893, 274.392 416.979, 251.602 418.579 C 244.164 419.102, 242.331 419.578, 240.422 421.487 C 235.036 426.873, 234.885 439.039, 240.140 444.294 C 242.881 447.034, 243.508 447.218, 248.304 446.681 C 251.162 446.362, 260.925 445.565, 270 444.911 C 287.235 443.669, 290.213 442.821, 292.132 438.610 L 293.172 436.326 296.009 439.163 C 299.247 442.401, 299.732 442.437, 322.061 441.074 C 337.150 440.154, 340.063 439.174, 344.805 433.421 C 350.865 426.068, 351.093 423.910, 350.782 376.768 C 350.509 335.513, 350.434 334.056, 348.439 331.385 C 345.685 327.698, 341.747 326.448, 337.902 328.041 C 332.360 330.336, 332 332.311, 332 360.450 L 332 386 322.061 386 L 312.121 386 311.811 359.703 C 311.535 336.377, 311.296 333.096, 309.698 330.658 C 304.440 322.643, 293.108 326.598, 292.964 336.500 L 292.920 339.500 291.341 336.500 C 290.473 334.850, 288.578 332.222, 287.131 330.661 C 282.143 325.279, 279.826 324.688, 263.326 324.590 L 248.152 324.500 244.986 327.500 C 243.245 329.150, 240.981 332.075, 239.954 334 C 238.383 336.947, 238.081 337.148, 238.044 335.270 C 237.973 331.700, 234.927 325.031, 232.862 323.926 C 231.818 323.368, 225.460 322.520, 218.732 322.042 C 207.956 321.276, 206.013 321.385, 202.410 322.959 C 198.140 324.824, 194.724 329.241, 192.416 335.882 C 191.342 338.970, 191.061 339.207, 190.494 337.500 C 187.548 328.622, 183.735 322.948, 179.106 320.555 C 177.645 319.799, 170.334 318.647, 162.859 317.995 C 150.851 316.947, 148.911 316.995, 146.186 318.404 C 142.310 320.408, 138.791 325.094, 136.454 331.365 L 134.641 336.229 133.437 332.151 C 131.938 327.074, 127.955 320.214, 124.793 317.262 C 121.906 314.566, 115.532 313.250, 101.120 312.375 L 90.367 311.722 86.707 315.490 C 83.317 318.980, 79.109 327.787, 78.919 331.788 C 78.874 332.729, 77.833 330.350, 76.606 326.500 C 73.976 318.252, 69.707 311.417, 65.982 309.491 C 63.539 308.228, 42.835 305, 37.174 305 C 35.720 305, 33.287 306.486, 31.036 308.750 M 518 326.361 C 518 327.741, 517.627 327.871, 516.066 327.035 C 513.586 325.708, 508.419 325.705, 505.945 327.030 C 502.183 329.043, 501 333.274, 501.002 344.700 L 501.004 355.500 491.502 355.181 L 482 354.863 481.994 346.681 C 481.991 342.182, 481.526 336.833, 480.960 334.795 C 478.782 326.953, 470.226 324.405, 464.969 330.033 C 462.753 332.406, 461.958 332.764, 461.318 331.679 C 459.116 327.945, 451.161 326.798, 447.117 329.631 C 444.084 331.755, 441.812 337.293, 442.551 340.758 C 442.990 342.815, 442.650 342.501, 441.190 339.500 C 440.120 337.300, 437.590 333.925, 435.569 332 L 431.894 328.500 412.259 328.189 C 401.460 328.018, 391.592 328.137, 390.330 328.453 C 386.509 329.412, 381.390 334.682, 378.876 340.243 C 376.549 345.392, 376.500 346.102, 376.500 374.675 C 376.500 402.761, 376.579 403.956, 378.602 406.675 C 382.751 412.251, 389.246 412.252, 393.398 406.678 C 395.402 403.987, 395.500 402.698, 395.500 378.929 L 395.500 354.002 398.250 354.001 L 401 354 401.004 378.750 C 401.007 401.590, 401.159 403.749, 402.973 406.723 C 406.374 412.301, 413.226 412.279, 417.398 406.677 C 419.402 403.986, 419.500 402.697, 419.500 378.928 L 419.500 354.001 422.250 354 L 425 354 425 378.099 C 425 404.349, 425.568 407.571, 430.595 409.861 C 435.629 412.155, 439.388 411.083, 441.650 406.711 L 443.225 403.664 444.798 406.256 C 446.717 409.419, 449.966 411, 454.547 411 C 458.043 411, 461.995 408.218, 462.005 405.750 C 462.008 405.063, 463.020 405.744, 464.255 407.265 C 467.268 410.976, 472.355 412.385, 475.978 410.511 C 480.151 408.354, 481.500 403.891, 481.500 392.250 L 481.500 382 491.250 382 L 501 382 501.006 391.250 C 501.009 396.337, 501.458 402.108, 502.004 404.074 C 503.843 410.694, 510.915 414.596, 515.558 411.554 L 517.905 410.016 518.202 416.258 L 518.500 422.500 521.708 417.620 C 525.808 411.384, 526.363 407.344, 525.601 389.263 C 524.882 372.188, 524.882 374.919, 525.610 354.777 C 526.078 341.841, 525.891 338.188, 524.557 334.170 C 522.807 328.903, 518 323.177, 518 326.361 M 507.400 329.765 C 504.929 331.415, 503.999 335.342, 503.986 344.184 C 503.965 358.918, 504.829 358, 490.989 358 L 479.211 358 478.855 346.105 C 478.448 332.479, 477.296 330, 471.368 330 C 465.591 330, 464.493 333.049, 464.541 348.959 C 464.574 359.675, 464.933 363.157, 466.265 365.649 C 467.843 368.604, 467.842 369.006, 466.246 372.149 C 464.895 374.811, 464.540 378.313, 464.522 389.174 C 464.502 401.519, 464.704 403.123, 466.599 405.674 C 469.266 409.265, 473.158 409.821, 475.796 406.988 C 478.374 404.221, 479 400.781, 479 389.375 L 479 380 491.500 380 L 504 380 504 392.365 C 504 403.360, 504.230 405.022, 506.073 407.365 C 509.992 412.348, 516.211 409.722, 517.564 402.513 C 518.745 396.216, 517.550 374.816, 515.838 371.608 C 514.442 368.990, 514.447 368.420, 515.898 365.608 C 517.153 363.173, 517.500 359.329, 517.500 347.855 C 517.500 334.857, 517.286 332.973, 515.595 331.105 C 513.712 329.024, 509.533 328.341, 507.400 329.765 M 391.762 330.720 C 388.435 331.219, 383.961 335.518, 381.397 340.680 C 379.692 344.114, 379.469 347.402, 379.194 373.191 C 378.865 404.014, 379.275 407, 384.038 408.512 C 386.663 409.345, 390.781 406.707, 392.045 403.383 C 392.570 402.001, 393 389.601, 393 375.828 C 393 353.404, 393.165 350.849, 394.582 351.393 C 395.452 351.727, 397.680 352, 399.534 352 L 402.905 352 403.203 377.897 C 403.476 401.721, 403.652 403.962, 405.405 405.897 C 406.453 407.054, 408.520 408, 410 408 C 411.480 408, 413.547 407.054, 414.595 405.897 C 416.348 403.962, 416.524 401.721, 416.797 377.897 L 417.095 352 422.047 352 L 427 352 427.015 376.750 C 427.030 403.061, 427.396 405.392, 431.854 407.615 C 435.066 409.216, 437.818 408.252, 439.540 404.923 C 440.716 402.649, 441 396.768, 441 374.728 C 441 343.984, 440.487 340.867, 434.388 334.587 L 430.904 331 414.034 331 C 404.755 331, 396.564 330.845, 395.832 330.655 C 395.099 330.465, 393.268 330.495, 391.762 330.720 M 447.405 333.104 C 445.625 335.070, 445.481 337.393, 445.212 368.598 C 445.018 391.006, 445.276 402.648, 445.997 403.994 C 448.844 409.313, 454.912 410.158, 458.972 405.799 C 460.927 403.701, 461 402.396, 461 369.500 C 461 336.542, 460.930 335.302, 458.961 333.189 C 456.208 330.234, 450.045 330.189, 447.405 333.104 M 704.370 350 C 704.370 355.775, 704.535 358.137, 704.737 355.250 C 704.939 352.363, 704.939 347.637, 704.737 344.750 C 704.535 341.863, 704.370 344.225, 704.370 350 M 40 369.377 L 40 396.038 42.250 395.573 C 43.487 395.317, 50.735 394.820, 58.355 394.468 L 72.211 393.828 75.105 396.601 L 78 399.374 78 390.475 L 78 381.576 75.250 384.759 C 72.516 387.923, 72.429 387.946, 60.341 388.607 C 48.274 389.268, 48.163 389.254, 45.660 386.751 C 42.167 383.258, 40.706 376.946, 41.200 367.478 C 41.652 358.802, 43.819 353.552, 47.466 352.299 C 48.585 351.914, 51.862 351.732, 54.750 351.892 L 60 352.185 60 348.092 C 60 344.011, 59.990 344, 56.147 344 C 54.027 344, 49.527 343.711, 46.147 343.358 L 40 342.715 40 369.377 M 591.691 346.362 C 591.373 347.193, 592.072 349.093, 593.246 350.585 L 595.379 353.298 612.190 352.637 L 629 351.976 629.118 356.238 C 629.183 358.582, 629.580 361.850, 630 363.500 C 630.549 365.657, 630.797 364.184, 630.882 358.256 L 631 350.013 614.584 350.660 L 598.168 351.307 595.220 348.079 C 592.918 345.560, 592.144 345.183, 591.691 346.362 M 744 346.148 C 744 346.977, 746.627 347.111, 753.482 346.629 L 762.964 345.962 763.251 370.231 L 763.537 394.500 763.769 369.750 L 764 345 754 345 C 747.143 345, 744 345.361, 744 346.148 M 544.673 353 C 544.217 356.575, 543.992 370.831, 544.173 384.679 C 544.481 408.422, 544.620 410.019, 546.600 412.679 C 548.762 415.582, 551.878 416.652, 554.823 415.504 C 556.157 414.984, 555.850 414.575, 553.325 413.505 C 546.721 410.707, 546.554 409.864, 546 376.547 C 545.628 354.208, 545.288 348.167, 544.673 353 M 676.250 347.745 C 670.480 347.951, 667 348.483, 667 349.158 C 667 350.486, 693.991 349.298, 695.450 347.906 C 696.022 347.360, 694.233 347.083, 690.950 347.208 C 687.952 347.322, 681.337 347.564, 676.250 347.745 M 153.118 359.250 C 153.220 368.165, 153.343 368.859, 154.059 364.582 C 154.591 361.406, 155.797 358.748, 157.464 357.082 C 159.784 354.762, 160.705 354.528, 166.523 354.772 L 173 355.044 173 352.022 L 173 349 163 349 L 153 349 153.118 359.250 M 255.863 351.663 C 255.663 352.123, 255.633 360.207, 255.795 369.626 L 256.089 386.752 271.307 386.240 L 286.524 385.729 289.762 388.453 L 293 391.178 292.968 384.339 C 292.942 378.757, 292.712 377.792, 291.718 379.087 C 289.300 382.236, 286.170 383.211, 282.434 381.978 C 277.167 380.240, 275.725 376.510, 275.197 363.250 L 274.748 352 267.624 351.986 C 263.706 351.979, 259.538 351.715, 258.363 351.399 C 257.187 351.084, 256.062 351.202, 255.863 351.663 M 565 353 C 565 354.296, 580.994 354.296, 583 353 C 584.025 352.337, 581.414 352.026, 574.750 352.015 C 568.906 352.006, 565 352.401, 565 353 M 750.400 373.500 C 750.401 381.750, 750.556 384.992, 750.744 380.704 C 750.932 376.417, 750.931 369.667, 750.742 365.704 C 750.552 361.742, 750.399 365.250, 750.400 373.500 M 673.667 361.667 C 673.300 362.033, 673.069 367.546, 673.154 373.917 L 673.308 385.500 674.016 376 C 674.405 370.775, 675.060 365.262, 675.470 363.750 C 676.170 361.173, 675.237 360.096, 673.667 361.667 M 464.079 368.583 C 464.127 369.748, 464.364 369.985, 464.683 369.188 C 464.972 368.466, 464.936 367.603, 464.604 367.271 C 464.272 366.939, 464.036 367.529, 464.079 368.583 M 686.385 379 C 686.385 385.875, 686.545 388.688, 686.740 385.250 C 686.936 381.813, 686.936 376.188, 686.740 372.750 C 686.545 369.313, 686.385 372.125, 686.385 379 M 590.764 370 C 589.651 373.776, 589.865 405.975, 591.030 410.170 C 593.231 418.091, 593.779 418.325, 613.145 419.613 C 622.690 420.248, 631.138 420.422, 631.918 420 C 634.061 418.840, 629.404 418.174, 614 417.438 C 592.749 416.422, 592.688 416.342, 592 388.048 C 591.725 376.747, 591.169 368.625, 590.764 370 M 153.115 380.864 L 153 390.228 169.061 389.497 C 184.909 388.776, 185.155 388.797, 187.561 391.058 L 190 393.349 190 386.539 L 190 379.730 188.048 382.212 C 186.224 384.531, 185.291 384.740, 173.925 385.382 C 158.539 386.252, 155.906 384.885, 153.930 375 C 153.445 372.574, 153.195 374.373, 153.115 380.864 M 629.642 375.750 C 628.701 381.442, 628.880 387.808, 630 388.500 C 630.637 388.894, 631 386.010, 631 380.559 C 631 375.852, 630.834 372, 630.631 372 C 630.428 372, 629.983 373.688, 629.642 375.750 M 611 385 C 611 386.279, 618.021 386.279, 620 385 C 621.074 384.306, 620.008 384.026, 616.250 384.015 C 613.362 384.007, 611 384.450, 611 385 M 294.387 403.390 C 294.724 406.079, 295 410.761, 295 413.795 L 295 419.310 297.090 417.418 C 298.877 415.801, 301.453 415.433, 314.840 414.879 C 323.453 414.524, 330.837 414.432, 331.250 414.675 C 331.663 414.919, 332 414.416, 332 413.559 C 332 412.229, 330.130 411.999, 319.250 411.996 C 304.362 411.992, 301.937 411.045, 296.866 403.252 L 293.774 398.500 294.387 403.390 M 648 402.962 C 648 407.102, 652.116 415.707, 655.832 419.336 C 659.460 422.878, 660.178 423.142, 668.588 424.027 C 679.420 425.166, 688.404 425.263, 689.418 424.250 C 689.831 423.837, 684.077 423.003, 676.630 422.395 C 667.136 421.620, 662.326 420.788, 660.526 419.609 C 656.852 417.201, 652.440 410.741, 650.893 405.504 C 649.520 400.852, 648 399.517, 648 402.962 M 704.173 411.500 C 704.064 422.311, 708.479 429.101, 714.615 427.560 L 717.404 426.860 713.376 425.057 C 708.742 422.982, 706.497 419.121, 705.126 410.867 L 704.234 405.500 704.173 411.500 M 726.058 412 C 726.010 416.929, 731.772 427.058, 735.792 429.110 C 739.737 431.124, 763.674 433.726, 765.104 432.296 C 765.757 431.643, 761.912 430.873, 753.797 430.033 C 736.987 428.292, 734.562 426.816, 729.090 414.982 C 726.214 408.765, 726.090 408.643, 726.058 412" stroke="none" fill="black" fill-rule="evenodd"/>
</svg>